**ABCDEFGHIJKLMNOPQRSTUVWXYZabcdefghijklmnopqrstuvwxyz**************************
**PARASOLID !"#$%&'()*+,-./:;<=>?@[\]^_`{|}~0123456789**************************
**PART1;
MC=AMD64;
MC_MODEL=AMD64 Family 25 Model 80 Stepping 0, AuthenticAMD;
MC_ID=unknown;
OS=Windows_NT;
OS_RELEASE=unknown;
FRU=Parasolid Version 32.1, build 255,  1- 1-2021;
APPL=SOLIDWORKS 2021-2021085;
SITE=;
USER=unknown;
FORMAT=text;
GUISE=transmit;
KEY=Inductor 0T;
FILE=Inductor 0T.x_t;
DATE=Sat Nov 13 14:27:02 2021;
**PART2;
SCH=SCH_3201255_32001;
USFLD_SIZE=0;
**PART3;
**END_OF_HEADER*****************************************************************
T51 : TRANSMIT FILE created by modeller version 320125523 SCH_3201255_32001_1300
6229 0 12 34 CCCCCCI4 mesh1006 0 I8 polyline1008 0 CCCCCCCDI5 owner1040 0 CCCCCC
I13 boundary_mesh1006 0 I17 boundary_polyline1008 0 CCCA16 index_map_offset0 0 1
 dA9 index_map82 0 A17 node_id_index_map82 0 A20 schema_embedding_map82 0 A5 chi
ld12 0 A14 lowest_node_id0 0 1 dA16 mesh_offset_data206 0 Z1 297 2 3 0 0 0 0 0 0
 1e3 1e-8 0 4 0 1 0 1 1 5 6 7 0 0 0 8 9 0 0 0 0 0 0 0 0 81 255 2 2 286 10 1 11 0
 0 0 0 12 70 11 CI9 list_type0 0 1 uI10 notransmit0 0 1 lCCCDCCDI12 finger_index
0 0 1 dI12 finger_block1012 0 CZ3 0 4 T1 0 0 9 20 1 13 13 13 255 5 73 0 1 0 14 0
 0 15 0 51 255 6 35 0 16 17 0 0 -.014 .004 0 433680868994202e-30 -1 0 95e-5 1 43
3680868994202e-30 0 31 255 7 40 0 9 18 0 0 +.014 .004 0 0 1 0 0 0 1 95e-5 19 8 C
CCCCCCA5 owner12 0 Z8 74 0 1 15 0 19 V0 16 255 9 21 0 ?20 0 21 7 0 0 1 17 255 20
 0 22 20 20 0 23 9 0 0 +16 21 17 0 ?24 9 25 18 0 0 1 17 24 0 26 24 24 0 27 21 0
 0 +16 25 13 0 ?28 21 29 30 0 0 1 31 18 39 0 21 30 7 0 +.012 .006 0 -1 433680868
994202e-30 0 0 0 1 95e-5 31 30 38 0 25 31 18 0 +.002 .006 0 -1 433680868994202e-
30 0 0 0 1 95e-5 31 31 37 0 29 32 30 0 +-1734723475976805e-33 .004 0 -4336808689
94202e-30 -1 0 0 0 1 95e-5 16 29 9 0 ?33 25 34 31 0 0 1 31 32 36 0 34 35 31 0 +-
1734723475976805e-33 770371977754894e-48 0 -433680868994202e-30 -1 0 0 0 1 95e-5
 16 34 6 0 ?36 29 37 32 0 0 1 31 35 144 0 37 38 32 0 +.014 -.001 .011 0 13695185
336659e-29 -1 0 1 13695185336659e-29 95e-5 16 37 122 0 ?39 34 40 35 0 0 1 31 38
 145 0 40 41 35 0 +.014 -.001 .001 0 13695185336659e-29 -1 0 1 13695185336659e-2
9 95e-5 16 40 121 0 ?42 37 43 38 0 0 1 31 41 146 0 43 44 38 0 +.014 520417042793
042e-32 -216840434497101e-33 -433680868994202e-30 1 190544612540433e-30 43368086
8994202e-30 -1905446125404325e-31 1 95e-5 16 43 119 0 ?45 40 46 41 0 0 1 31 44 1
86 0 46 47 41 0 +0 -.001 .011 0 13695185336659e-29 -1 0 1 13695185336659e-29 95e
-5 16 46 164 0 ?48 43 49 44 0 0 1 31 47 187 0 49 0 44 0 +0 -.001 .001 0 13695185
336659e-29 -1 0 1 13695185336659e-29 95e-5 16 49 163 0 ?50 46 0 47 0 0 1 17 50 0
 51 50 50 0 52 49 0 0 +15 255 51 174 0 50 53 54 17 52 0 55 52 52 0 50 49 0 0 -15
 55 179 0 52 56 0 14 255 56 176 57 ?0 53 58 5 59 -0 0 53 60 19 81 1 57 287 61 56
 62 0 0 63 64 14 53 172 63 ?56 65 51 5 66 -0 0 65 56 19 15 58 178 0 48 56 55 51
 59 184 0 56 66 67 0 -0 -.001 .001 0 -1301042606982604e-31 1 95e-5 0 -1 -1301042
606982604e-31 14 60 127 68 ?69 16 70 5 71 -0 0 56 69 19 13 19 3 0 0 0 0 0 0 8 16
 14 16 24 72 ?60 73 74 5 6 -0 0 73 0 19 81 1 72 290 61 16 75 0 68 76 77 14 73 20
 76 ?16 78 22 5 17 -0 0 78 16 19 15 74 26 0 45 16 79 17 45 0 74 45 45 0 80 43 0
 0 +15 79 23 0 23 16 0 17 23 0 79 23 23 0 20 9 0 0 -17 80 0 81 80 80 0 45 43 0 0
 -15 81 133 0 80 69 0 14 69 130 82 ?83 60 84 5 85 -0 0 60 83 19 81 1 82 292 61 6
9 86 0 76 87 88 14 83 134 87 ?65 69 89 5 90 -0 0 69 14 19 15 84 132 0 42 69 81 5
4 255 85 143 0 69 67 90 0 -.014 607153216591883e-32 .001 -1 -433680868994202e-30
 0 .001 95e-5 433680868994202e-30 -1 0 50 255 67 183 0 65 59 85 0 +0 -.001 .011
 0 13695185336659e-29 -1 0 1 13695185336659e-29 51 90 142 0 83 85 71 0 -.014 -.0
01 .001 0 -1301042606982604e-31 1 95e-5 0 -1 -1301042606982604e-31 50 71 141 0 6
0 90 91 0 +.014 -.001 .011 0 13695185336659e-29 -1 0 1 13695185336659e-29 51 91
 31 0 14 71 92 0 --1734723475976805e-33 770371977754894e-48 0 0 1 0 95e-5 0 0 1
 14 14 2 93 ?94 0 95 5 91 -0 0 83 94 19 54 92 32 0 94 91 96 0 -.002 .004 0 0 0 -
1 .002 95e-5 -1 0 0 14 94 12 97 ?78 14 98 5 92 -0 0 14 78 19 51 96 33 0 78 92 17
 0 -.002 .006 0 1 0 0 95e-5 0 0 -1 14 78 16 99 ?73 94 26 5 96 -0 0 94 73 19 54 1
7 34 0 73 96 6 0 -.012 .004 0 0 0 -1 .002 95e-5 -1 0 0 81 1 99 296 61 78 100 0 9
7 101 102 15 26 18 0 24 78 103 15 103 15 0 104 78 0 17 104 0 103 104 104 0 28 25
 0 0 -17 28 0 98 28 28 0 104 25 0 0 +15 98 14 0 28 94 105 15 105 11 0 106 94 0 1
7 106 0 105 106 106 0 33 29 0 0 -17 33 0 95 33 33 0 106 29 0 0 +15 95 10 0 33 14
 107 15 107 7 0 108 14 0 17 108 0 107 108 108 0 36 34 0 0 -17 36 0 54 36 36 0 10
8 34 0 0 +15 54 175 0 36 53 0 80 255 1 61 109 110 9000 1 1 1 1 1 1 1 1 0 FFFFTFT
FFFFFFF1 81 1 100 254 111 78 0 99 112 113 114 81 1 97 295 61 94 112 0 93 99 115
 81 1 101 297 61 65 116 0 99 0 117 82 255 1 102 1372586119 14 65 169 101 ?53 83
 118 5 67 -0 0 0 53 19 81 1 116 260 111 65 0 101 119 120 121 82 1 117 -199386712
0 80 1 111 0 122 8001 0 0 0 0 3 5 0 0 0 FFFFTFTFFFFFFF2 81 1 119 259 111 83 0 87
 86 116 123 81 1 120 261 111 53 0 63 116 62 124 83 255 3 121 .83921568627451 .46
6666666666667 .368627450980392 81 1 63 288 61 53 120 0 57 68 125 81 1 62 262 111
 56 0 57 120 0 126 83 3 124 .83921568627451 .466666666666667 .368627450980392 83
 3 126 .83921568627451 .466666666666667 .368627450980392 81 1 68 289 61 60 127 0
 63 72 128 82 1 125 -1997274992 81 1 127 257 111 60 0 68 75 86 129 82 1 128 1897
201804 81 1 75 256 111 16 0 72 113 127 130 81 1 86 258 111 69 0 82 127 119 131 8
3 3 129 .83921568627451 .466666666666667 .368627450980392 83 3 131 .839215686274
51 .466666666666667 .368627450980392 81 1 113 255 111 73 0 76 100 75 132 83 3 13
0 .83921568627451 .466666666666667 .368627450980392 81 1 76 291 61 73 113 0 72 8
2 133 83 3 132 .83921568627451 .466666666666667 .368627450980392 82 1 133 137297
9335 81 1 87 293 61 83 119 0 82 93 134 83 3 123 .83921568627451 .466666666666667
 .368627450980392 81 1 93 294 61 14 135 0 87 97 136 82 1 134 1894514828 81 1 135
 252 111 14 0 93 0 112 137 82 1 136 1371472007 81 1 112 253 111 94 0 97 135 100
 138 83 3 137 .83921568627451 .466666666666667 .368627450980392 83 3 138 .839215
68627451 .466666666666667 .368627450980392 79 255 15 122 SDL/TYSA_COLOUR15 118 1
71 0 139 65 0 17 139 0 118 139 139 0 48 46 0 0 -17 48 0 58 48 48 0 139 46 0 0 +8
2 1 115 1372192903 83 3 114 .83921568627451 .466666666666667 .368627450980392 79
 14 110 SWEntUnchanged17 42 0 84 42 42 0 140 40 0 0 +17 140 0 141 140 140 0 42 4
0 0 0 -15 141 137 0 140 83 0 15 89 136 0 39 83 141 17 39 0 89 39 39 0 142 37 0 0
 +17 142 0 70 142 142 0 39 37 0 0 -15 70 129 0 142 60 0 82 1 88 1893793932 15 22
 22 0 20 73 143 15 143 19 0 27 73 0 17 27 0 143 27 27 0 24 21 0 0 -82 1 77 13733
72551 54 66 185 0 53 0 59 0 -0 0 .001 -1 0 0 .001 95e-5 0 0 1 82 1 64 -199655409
6 19 15 5 0 1 0 8 5 S0 74 4 CI16 index_map_offset0 0 1 dCCZ20 13 9 0 0 101 144 1
45 146 147 148 11 62 2 0 0 0 0 0 0 0 0 0 0 0 81 2 144 190 149 1 0 145 0 0 0 150
 81 2 145 196 151 1 144 146 0 0 0 152 81 1 146 200 153 1 145 147 0 0 154 81 2 14
7 213 155 1 146 148 0 0 156 0 81 2 148 246 157 1 147 11 0 0 0 158 81 2 11 249 15
9 1 148 2 0 0 0 0 80 2 159 160 161 9000 0 0 0 0 3 5 0 0 0 FFTFFFFFFFFFFF9 1 79 1
6 161 BODY_RECIPE_200180 2 157 162 163 9000 0 0 0 0 3 5 0 0 0 FFTFFFFFFFFFFF9 1
 82 1 158 1 79 24 163 BODY_IN_LIGHTWEIGHT_PERM80 2 155 164 165 8004 0 0 0 0 3 5
 0 0 0 FFTFFFFFFFFFFF2 3 83 1 156 1 79 16 165 SDL/TYSA_DENSITY80 1 153 166 167 9
000 1 1 1 1 1 1 1 1 0 FFTFFFFFFFFFFF1 82 1 154 479674 79 10 167 BODY_MATCH80 2 1
51 168 169 9000 0 0 0 0 3 5 0 0 0 FFTFFFFFFFFFFF9 1 82 1 152 69 79 30 169 LAST_B
ODY_MODIFYING_FEATURE_ID80 2 149 170 171 9000 0 0 0 0 3 5 0 0 0 FFTFFFFFFFFFFF9
 1 82 1 150 129 79 19 171 ENT_TIME_STAMP_200180 2 10 172 173 9000 0 0 0 0 3 5 0
 0 0 FFTFFFFFFFFFFF9 1 82 1 12 103 79 12 173 ATOM_ID_20011 0 
