**ABCDEFGHIJKLMNOPQRSTUVWXYZabcdefghijklmnopqrstuvwxyz**************************
**PARASOLID !"#$%&'()*+,-./:;<=>?@[\]^_`{|}~0123456789**************************
**PART1;
MC=AMD64;
MC_MODEL=Intel64 Family 6 Model 165 Stepping 2, GenuineIntel;
MC_ID=unknown;
OS=Windows_NT;
OS_RELEASE=unknown;
FRU=Parasolid Version 32.1, build 255,  1- 1-2021;
APPL=SOLIDWORKS 2021-2021085;
SITE=;
USER=unknown;
FORMAT=text;
GUISE=transmit;
KEY=Supercap 2.5F 5.4V_vert;
FILE=Supercap 2.5F 5.4V_vert.x_t;
DATE=Mon Dec 27 09:48:36 2021;
**PART2;
SCH=SCH_3201255_32001;
USFLD_SIZE=0;
**PART3;
**END_OF_HEADER*****************************************************************
T51 : TRANSMIT FILE created by modeller version 320125523 SCH_3201255_32001_1300
6229 0 12 34 CCCCCCI4 mesh1006 0 I8 polyline1008 0 CCCCCCCDI5 owner1040 0 CCCCCC
I13 boundary_mesh1006 0 I17 boundary_polyline1008 0 CCCA16 index_map_offset0 0 1
 dA9 index_map82 0 A17 node_id_index_map82 0 A20 schema_embedding_map82 0 A5 chi
ld12 0 A14 lowest_node_id0 0 1 dA16 mesh_offset_data206 0 Z1 1055 2 3 0 0 0 0 0
 0 1e3 1e-8 0 4 0 1 0 1 1 5 6 7 8 0 0 9 10 11 0 0 0 0 0 0 0 81 255 2 2 1022 12 1
 13 0 0 0 0 14 70 11 CI9 list_type0 0 1 uI10 notransmit0 0 1 lCCCDCCDI12 finger_
index0 0 1 dI12 finger_block1012 0 CZ3 0 4 T1 0 0 8 20 1 15 15 13 255 5 99 0 1 0
 16 0 0 17 0 51 255 6 493 0 18 19 0 0 +-392377929089992e-33 -.00475 -5e-4 1 -826
058798084194e-31 0 5e-4 826058798084194e-31 1 0 31 255 7 497 0 20 21 0 0 +.0105
 -.00475 -5e-4 1 0 0 0 0 -1 5e-4 29 255 8 554 0 11 22 0 -.00073076923076923 .003
134615384615385 0 19 8 CCCCCCCA5 owner12 0 Z9 33 0 1 17 0 23 V0 16 255 10 390 0
 ?24 0 25 26 0 0 1 18 255 11 552 0 27 0 28 8 ?1 17 255 27 0 29 30 31 11 32 33 0
 34 -18 28 386 0 35 11 36 22 ?1 17 35 0 37 24 38 28 39 25 0 40 +18 36 382 0 38 2
8 41 42 ?1 29 22 388 0 28 42 8 .0105 .00475 0 29 42 384 0 36 43 22 .0105 -.00475
 0 29 43 380 0 41 44 42 413029399042097e-34 -.00475 0 18 41 378 0 45 36 46 43 ?1
 29 44 377 0 46 47 43 826058798084194e-34 .00475 0 18 46 375 0 48 41 49 44 ?1 29
 47 354 0 49 50 44 0 .00525 -5e-4 18 49 352 0 51 46 52 47 ?1 29 50 351 0 52 53 4
7 0 .00525 -.0215 18 52 349 0 54 49 55 50 ?1 29 53 338 0 55 56 50 .0105 .00525 -
5e-4 18 55 336 0 57 52 58 53 ?1 29 56 335 0 58 59 53 .0105 .00525 -.0215 18 58 3
33 0 60 55 61 56 ?1 29 59 326 0 61 62 56 .0105 -.00475 -.022 18 61 324 0 63 58 6
4 59 ?1 29 62 322 0 64 65 59 .0105 .00475 -.022 18 64 320 0 66 61 67 62 ?1 29 65
 318 0 67 68 62 826058798084194e-34 .00475 -.022 18 67 316 0 69 64 70 65 ?1 29 6
8 315 0 70 71 65 413029399042097e-34 -.00475 -.022 18 70 313 0 72 67 73 68 ?1 29
 71 302 0 73 74 68 .0105 -.00525 -5e-4 18 73 300 0 75 70 76 71 ?1 29 74 299 0 76
 77 71 .0105 -.00525 -.0215 18 76 297 0 78 73 79 74 ?1 29 77 296 0 79 80 74 0 -.
00525 -5e-4 18 79 294 0 81 76 82 77 ?1 29 80 293 0 82 83 77 0 -.00525 -.0215 18
 82 291 0 84 79 85 80 ?1 29 83 817 0 86 87 80 -.00073076923076923 .0028205128205
1282 0 18 86 696 0 88 89 90 83 ?1 29 87 818 0 90 91 83 .0003012820512820515 .002
82051282051282 0 18 90 695 0 92 86 93 87 ?1 29 91 819 0 93 94 87 .00030128205128
20515 .00178846153846154 0 18 93 694 0 95 90 96 91 ?1 29 94 820 0 96 97 91 .0006
15384615384616 .00178846153846154 0 18 96 693 0 98 93 99 94 ?1 29 97 821 0 99 10
0 94 .000615384615384616 .00282051282051282 0 18 99 692 0 101 96 102 97 ?1 29 10
0 822 0 102 103 97 .0016474358974359 .00282051282051282 0 18 102 691 0 104 99 10
5 100 ?1 29 103 823 0 105 106 100 .0016474358974359 .003134615384615385 0 18 105
 690 0 107 102 108 103 ?1 29 106 824 0 108 109 103 .000615384615384616 .00313461
5384615385 0 18 108 689 0 110 105 111 106 ?1 29 109 825 0 111 112 106 .000615384
615384616 .004166666666666665 0 18 111 688 0 113 108 114 109 ?1 29 112 826 0 114
 115 109 .0003012820512820515 .004166666666666665 0 18 114 686 0 116 111 117 112
 ?1 29 115 827 0 117 118 112 .0003012820512820515 .003134615384615385 0 18 117 7
09 0 119 114 0 115 ?1 29 118 828 0 85 120 115 -.00073076923076923 .0031346153846
15385 -2e-4 18 85 708 0 121 82 122 118 ?1 29 120 829 0 122 123 118 -.00073076923
076923 .00282051282051282 -2e-4 18 122 707 0 124 85 125 120 ?1 29 123 830 0 125
 126 120 .0003012820512820515 .00282051282051282 -2e-4 18 125 706 0 127 122 128
 123 ?1 29 126 831 0 128 129 123 .0003012820512820515 .00178846153846154 -2e-4 1
8 128 705 0 130 125 131 126 ?1 29 129 832 0 131 132 126 .000615384615384616 .001
78846153846154 -2e-4 18 131 704 0 133 128 134 129 ?1 29 132 833 0 134 135 129 .0
00615384615384616 .00282051282051282 -2e-4 18 134 703 0 136 131 137 132 ?1 29 13
5 834 0 137 138 132 .0016474358974359 .00282051282051282 -2e-4 18 137 702 0 139
 134 140 135 ?1 29 138 835 0 140 141 135 .0016474358974359 .003134615384615385 -
2e-4 18 140 701 0 142 137 143 138 ?1 29 141 836 0 143 144 138 .00061538461538461
6 .003134615384615385 -2e-4 18 143 700 0 145 140 146 141 ?1 29 144 837 0 146 147
 141 .000615384615384616 .004166666666666665 -2e-4 18 146 699 0 148 143 149 144
 ?1 29 147 838 0 149 150 144 .0003012820512820515 .004166666666666665 -2e-4 18 1
49 698 0 151 146 89 147 ?1 29 150 839 0 89 0 147 .0003012820512820515 .003134615
384615385 -2e-4 18 89 687 0 152 149 86 150 ?1 17 152 0 153 154 155 89 151 156 0
 157 -15 255 153 760 0 154 158 0 17 154 0 153 159 152 85 157 160 0 0 -17 155 0 1
53 152 161 149 148 162 0 0 -17 151 0 163 116 164 149 152 156 0 165 +16 156 653 0
 ?151 162 160 166 0 0 1 17 157 0 29 31 30 89 154 160 0 164 +15 29 713 0 27 167 0
 17 31 0 29 27 157 117 164 168 0 32 +17 30 0 29 157 27 85 34 169 0 154 -16 160 6
50 0 ?157 156 170 171 0 0 1 17 164 0 163 151 119 89 31 168 0 0 -15 163 717 0 119
 172 0 17 119 0 163 164 116 117 173 174 0 31 -16 168 609 0 ?31 175 176 177 0 0 1
 16 175 484 0 ?48 178 168 179 0 0 1 16 176 613 0 ?116 168 180 181 0 0 1 30 255 1
77 780 0 168 181 182 0 +.0003012820512820515 .003134615384615385 -2e-4 0 0 1 30
 181 781 0 176 183 177 0 +.0003012820512820515 .004166666666666665 -2e-4 0 0 1 3
1 182 200 0 184 177 185 0 +.0105 -.00205 .006 0 0 1 1 0 0 4e-4 16 184 181 0 ?186
 187 188 182 0 0 1 31 185 168 0 187 182 189 0 +0 -.00205 .006 0 0 1 1 0 0 4e-4 1
6 187 149 0 ?190 191 184 185 0 0 1 30 189 95 0 192 185 193 0 +0 .00525 -.022 0 0
 1 16 192 350 0 ?194 195 196 189 0 0 1 30 193 96 0 196 189 197 0 +.0105 .00525 -
.022 0 0 1 16 196 334 0 ?198 192 199 193 0 0 1 30 197 97 0 199 193 200 0 +.0105
 -.00525 -.022 0 0 1 16 199 298 0 ?201 196 191 197 0 0 1 30 200 98 0 191 197 202
 0 +0 -.00525 -.022 0 0 1 16 191 292 0 ?203 199 187 200 0 0 1 31 202 223 0 195 2
00 204 0 +.0105 -.00205 .0015 0 0 1 1 0 0 4e-4 16 195 220 0 ?205 206 192 202 0 0
 1 31 204 229 0 206 202 207 0 -0 -.00205 0 0 0 1 1 0 0 .0019 16 206 226 0 ?208 2
09 195 204 0 0 1 31 207 235 0 209 204 210 0 -.0105 -.00205 0 0 0 1 1 0 0 .0019 1
6 209 232 0 ?211 212 206 207 0 0 1 31 210 241 0 212 207 213 0 +0 -.00205 .0015 0
 0 1 1 0 0 4e-4 16 212 238 0 ?214 215 209 210 0 0 1 30 213 305 0 215 210 216 0 -
0 -.00525 -5e-4 1 -826058798084194e-31 0 16 215 303 0 ?81 217 212 213 0 0 1 30 2
16 310 0 217 213 218 0 +.0105 -.00525 -.0215 1 -826058798084194e-31 0 16 217 308
 0 ?219 220 215 216 0 0 1 31 218 319 0 220 216 221 0 -0 0 -.022 0 0 1 1 0 0 .004
75 16 220 317 0 ?69 222 217 218 0 0 1 30 221 323 0 222 218 223 0 -.0105 .00475 -
.022 -1 -165211759616839e-30 0 16 222 321 0 ?66 224 220 221 0 0 1 31 223 327 0 2
24 221 225 0 -.0105 1084202172485504e-34 -.022 0 0 1 1 0 0 .00475 16 224 325 0 ?
63 226 222 223 0 0 1 30 225 330 0 226 223 227 0 -4130293990420975e-35 -.00475 -.
022 1 -826058798084194e-31 0 16 226 328 0 ?228 229 224 225 0 0 1 31 227 341 0 22
9 225 230 0 -.0105 1084202172485504e-34 -5e-4 0 0 1 1 0 0 .00525 16 229 339 0 ?7
5 231 226 227 0 0 1 31 230 346 0 231 227 232 0 +.0105 1084202172485504e-34 -.021
5 0 0 1 1 0 0 .00525 16 231 344 0 ?60 233 229 230 0 0 1 30 232 357 0 233 230 234
 0 -0 .00525 -5e-4 -1 -165211759616839e-30 0 16 233 355 0 ?235 236 231 232 0 0 1
 30 234 362 0 236 232 237 0 +0 .00525 -.0215 -1 -165211759616839e-30 0 16 236 36
0 0 ?54 238 233 234 0 0 1 31 237 367 0 238 234 239 0 -0 0 -5e-4 0 0 1 1 0 0 .005
25 16 238 365 0 ?51 240 236 237 0 0 1 31 239 372 0 240 237 241 0 +0 0 -.0215 0 0
 1 1 0 0 .00525 16 240 370 0 ?84 242 238 239 0 0 1 31 241 381 0 242 239 243 0 +0
 0 0 0 0 1 1 0 0 .00475 16 242 379 0 ?45 244 240 241 0 0 1 30 243 385 0 244 241
 245 0 +-392377929089992e-33 -.00475 0 1 -826058798084194e-31 0 16 244 383 0 ?38
 25 242 243 0 0 1 31 245 389 0 25 243 26 0 +.0105 1084202172485504e-34 0 0 0 1 1
 0 0 .00475 16 25 387 0 ?35 10 244 245 0 0 1 30 26 392 0 10 245 246 0 +-78475585
8179984e-33 .00475 0 -1 -165211759616839e-30 0 31 246 447 0 247 26 248 0 +.0105
 -.00475 -.0215 -1 0 0 0 0 1 5e-4 16 247 431 0 ?78 249 20 246 0 0 1 31 248 446 0
 249 246 250 0 +0 -.00475 -.0215 1 0 826058798084193e-31 826058798084193e-31 0 -
1 5e-4 16 249 429 0 ?72 251 247 248 0 0 1 31 250 445 0 251 248 252 0 +.0105 .004
75 -.0215 1 0 0 0 0 -1 5e-4 16 251 426 0 ?253 188 249 250 0 0 1 31 252 444 0 188
 250 179 0 +826058798084194e-34 .00475 -.0215 -1 -1652117596168385e-31 0 1652117
596168385e-31 -1 0 5e-4 16 188 423 0 ?254 184 251 252 0 0 1 31 179 500 0 175 252
 255 0 +0 .00475 -5e-4 1 0 -1652117596168385e-31 -1652117596168385e-31 0 -1 5e-4
 31 255 499 0 178 179 21 0 +.0105 .00475 -5e-4 -1 0 0 0 0 1 5e-4 16 178 482 0 ?5
7 256 175 255 0 0 1 31 21 498 0 256 255 7 0 +413029399042097e-34 -.00475 -5e-4 -
1 826058798084193e-31 0 -826058798084193e-31 -1 0 5e-4 16 256 479 0 ?257 20 178
 21 0 0 1 17 257 0 258 259 260 41 261 256 0 0 +16 20 476 0 ?262 247 256 7 0 0 1
 17 262 0 263 264 39 73 265 20 0 0 +15 263 466 0 262 266 0 17 264 0 263 40 262 5
5 75 229 0 235 -17 39 0 263 262 40 36 35 25 0 0 -17 265 0 267 268 269 36 262 20
 0 39 -15 267 464 0 261 18 0 17 268 0 267 261 265 41 38 244 0 257 -17 269 0 267
 265 261 73 81 215 0 262 -17 261 0 267 269 268 79 257 256 0 260 -17 81 0 270 271
 201 79 269 215 0 203 +15 270 87 0 271 272 0 17 271 0 270 219 81 82 203 191 0 27
3 -17 201 0 270 81 219 73 274 199 0 269 +17 203 0 275 51 84 79 271 191 0 261 +15
 275 89 0 276 277 0 17 51 0 275 276 203 49 260 238 0 194 +17 84 0 275 203 276 82
 278 240 0 271 +17 276 0 275 84 51 52 194 192 0 279 -17 278 0 280 254 273 52 84
 240 0 0 -15 280 413 0 254 281 0 17 254 0 280 282 278 67 279 188 0 0 +17 273 0 2
80 278 282 82 72 249 0 283 -17 282 0 280 273 254 70 69 220 0 228 -17 72 0 284 28
5 283 70 273 249 0 282 +17 283 0 284 72 78 82 219 217 0 0 -15 284 417 0 72 286 0
 17 78 0 284 283 285 76 287 247 0 288 +17 219 0 270 201 271 76 283 217 0 274 +17
 274 0 289 60 75 76 201 199 0 0 -15 289 85 0 274 290 0 17 60 0 289 198 274 58 28
8 231 0 291 +17 75 0 289 274 198 73 264 229 0 201 +17 198 0 289 75 60 55 291 196
 0 0 +17 291 0 292 54 235 58 198 196 0 293 -15 292 83 0 291 294 0 17 54 0 292 19
4 291 52 293 236 0 276 +17 235 0 292 291 194 55 295 233 0 198 +17 293 0 296 297
 279 58 54 236 0 253 -15 296 411 0 297 298 0 17 297 0 296 299 293 64 253 251 0 3
00 -17 279 0 296 293 299 52 254 188 0 278 -17 253 0 301 288 300 58 297 251 0 0 +
15 301 415 0 253 302 0 17 288 0 301 287 253 76 60 231 0 219 -17 300 0 301 253 28
7 64 63 224 0 0 -17 287 0 301 300 288 61 78 247 0 0 -17 63 0 303 228 66 61 300 2
24 0 285 +15 303 314 0 63 304 0 17 228 0 303 69 63 70 285 226 0 0 +17 66 0 303 6
3 69 64 299 222 0 297 +17 285 0 284 78 72 61 228 226 0 287 -17 69 0 303 66 228 6
7 282 220 0 299 +17 299 0 296 279 297 67 66 222 0 254 -14 255 304 1 305 ?306 272
 303 5 307 -0 0 308 272 23 81 1 305 1023 309 304 310 0 0 311 312 14 306 156 311
 ?308 304 313 5 314 +0 0 315 308 23 14 272 88 316 ?304 290 270 5 317 +0 0 304 29
0 23 50 255 307 3 0 304 314 318 0 +0 0 -.022 0 0 1 1 0 0 14 308 159 319 ?320 306
 321 5 322 +0 0 306 304 23 13 23 34 0 0 0 0 0 0 9 16 14 16 599 323 ?277 0 37 5 3
18 +0 0 277 0 23 81 1 323 1027 309 16 324 0 319 325 326 14 277 90 325 ?294 16 27
5 5 327 +0 0 294 16 23 15 37 376 0 35 16 328 50 318 70 0 16 307 329 0 +0 0 0 0 0
 1 1 0 0 50 329 91 0 294 318 330 0 +0 .00525 -.022 -165211759616839e-30 1 0 -1 -
165211759616839e-30 0 14 294 84 331 ?290 277 292 5 329 +0 0 290 277 23 51 330 92
 0 290 329 317 0 +.0105 1084202172485504e-34 -.022 0 0 1 .00525 1 0 0 14 290 86
 332 ?272 294 289 5 330 +0 0 272 294 23 50 317 93 0 272 330 327 0 +0 -.00525 -.0
22 -826058798084194e-31 -1 0 1 -826058798084194e-31 0 51 327 94 0 277 317 333 0
 +0 0 -.022 0 0 1 .00525 1 0 0 54 255 333 258 0 334 327 335 0 +.0105 -.00205 .00
15 0 0 1 .0019 .0015 1 0 0 14 334 251 336 ?337 315 338 5 333 -0 0 337 320 23 54
 335 271 0 337 333 339 0 +0 -.00205 .0015 0 0 1 .0019 .0015 1 0 0 14 337 264 340
 ?298 334 341 5 335 -0 0 298 334 23 51 339 443 0 286 335 342 0 +413029399042097e
-34 -.00475 -.0215 -1 826058798084194e-31 0 5e-4 -826058798084194e-31 -1 0 14 28
6 416 343 ?18 302 284 5 339 +0 0 18 302 23 54 342 442 0 302 339 344 0 +.0105 108
4202172485504e-34 -.0215 0 0 1 .00475 5e-4 1 0 0 14 302 414 345 ?286 281 301 5 3
42 +0 0 286 281 23 54 344 441 0 281 342 346 0 +0 0 -.0215 0 0 1 .00475 5e-4 1 0
 0 14 281 412 347 ?302 298 280 5 344 +0 0 302 298 23 51 346 440 0 298 344 348 0
 +826058798084194e-34 .00475 -.0215 1 165211759616839e-30 0 5e-4 -16521175961683
9e-30 1 0 14 298 410 349 ?281 337 296 5 346 +0 0 281 337 23 51 348 496 0 350 346
 351 0 +-784755858179984e-33 .00475 -5e-4 -1 -165211759616839e-30 0 5e-4 1652117
59616839e-30 -1 0 14 350 469 352 ?167 353 354 5 348 +0 0 167 353 23 54 351 495 0
 353 348 19 0 +0 0 -5e-4 0 0 1 .00475 5e-4 1 0 0 14 353 467 355 ?350 266 258 5 3
51 +0 0 350 266 23 54 19 494 0 266 351 6 0 +.0105 1084202172485504e-34 -5e-4 0 0
 1 .00475 5e-4 1 0 0 14 266 465 356 ?353 18 263 5 19 +0 0 353 18 23 81 1 356 103
9 309 266 357 0 355 358 359 14 18 463 358 ?266 286 267 5 6 +0 0 266 286 23 81 1
 358 1040 309 18 360 0 356 361 362 80 255 1 309 363 364 9000 1 1 1 1 1 1 1 1 0 F
FFFTFTFFFFFFF1 81 1 360 938 365 18 0 358 366 357 367 81 1 361 1041 309 315 368 0
 358 369 370 82 255 1 362 405274814 14 315 191 361 ?334 320 371 5 372 +0 0 320 3
06 23 81 1 368 931 365 315 0 361 373 374 375 81 1 369 1042 309 320 373 0 361 376
 377 82 1 370 335413437 14 320 188 369 ?315 308 378 5 379 +0 0 334 315 23 81 1 3
73 930 365 320 0 369 380 368 381 81 1 376 1043 309 167 382 0 369 383 384 82 1 37
7 338231484 14 167 710 376 ?172 350 29 5 385 +0 0 172 350 23 81 1 382 942 365 16
7 0 376 386 387 388 81 1 383 1044 309 172 387 0 376 389 390 82 1 384 489619648 1
4 172 714 383 ?391 167 163 5 392 +0 0 391 167 23 81 1 387 943 365 172 0 383 382
 393 394 81 1 389 1045 309 391 393 0 383 395 396 82 1 390 489357504 14 391 718 3
89 ?397 172 398 5 399 +0 0 397 172 23 81 1 393 944 365 391 0 389 387 400 401 81
 1 395 1046 309 397 400 0 389 402 403 82 1 396 489095360 14 397 722 395 ?404 391
 405 5 406 +0 0 404 391 23 81 1 400 945 365 397 0 395 393 407 408 81 1 402 1047
 309 404 407 0 395 409 410 82 1 403 488833216 14 404 726 402 ?411 397 412 5 413
 +0 0 411 397 23 81 1 407 946 365 404 0 402 400 414 415 81 1 409 1048 309 411 41
4 0 402 416 417 82 1 410 488571072 14 411 730 409 ?418 404 419 5 420 +0 0 418 40
4 23 81 1 414 947 365 411 0 409 407 421 422 81 1 416 1049 309 418 421 0 409 423
 424 82 1 417 488308928 14 418 734 416 ?425 411 426 5 427 +0 0 425 411 23 81 1 4
21 948 365 418 0 416 414 428 429 81 1 423 1050 309 425 428 0 416 430 431 82 1 42
4 488046784 14 425 738 423 ?432 418 433 5 434 +0 0 432 418 23 81 1 428 949 365 4
25 0 423 421 435 436 81 1 430 1051 309 432 435 0 423 437 438 82 1 431 487784640
 14 432 742 430 ?439 425 440 5 441 +0 0 439 425 23 81 1 435 950 365 432 0 430 42
8 442 443 81 1 437 1052 309 439 442 0 430 444 445 82 1 438 487522496 14 439 746
 437 ?446 432 447 5 448 +0 0 446 432 23 81 1 442 951 365 439 0 437 435 449 450 8
1 1 444 1053 309 446 449 0 437 451 452 82 1 445 487260352 14 446 750 444 ?453 43
9 454 5 455 +0 0 453 439 23 81 1 449 952 365 446 0 444 442 456 457 81 1 451 1054
 309 453 456 0 444 458 459 82 1 452 486998208 14 453 754 451 ?158 446 460 5 461
 +0 0 158 446 23 81 1 456 953 365 453 0 451 449 462 463 81 1 458 1055 309 158 46
2 0 451 0 464 82 1 459 486736064 14 158 758 458 ?0 453 153 5 465 +0 0 0 453 23 8
1 1 462 954 365 158 0 458 456 0 466 82 1 464 469172416 80 1 365 0 467 8001 0 0 0
 0 3 5 0 0 0 FFFFTFTFFFFFFF2 83 255 3 466 .792156862745098 .819607843137255 .933
333333333333 79 255 15 467 SDL/TYSA_COLOUR50 465 779 0 158 0 461 0 +0 0 -2e-4 0
 0 1 1 0 0 50 461 777 0 453 465 455 0 +-.00073076923076923 .00282051282051282 -2
e-4 1 0 0 0 0 -1 50 455 776 0 446 461 448 0 +.0003012820512820515 .0028205128205
1282 -2e-4 0 1 0 0 0 1 50 448 775 0 439 455 441 0 +.0003012820512820515 .0017884
6153846154 -2e-4 1 0 0 0 0 -1 50 441 774 0 432 448 434 0 +.000615384615384616 .0
0178846153846154 -2e-4 0 1 0 0 0 1 50 434 773 0 425 441 427 0 +.0006153846153846
16 .00282051282051282 -2e-4 -1 0 0 0 0 1 50 427 772 0 418 434 420 0 +.0016474358
974359 .00282051282051282 -2e-4 0 1 0 0 0 1 50 420 771 0 411 427 413 0 +.0016474
358974359 .003134615384615385 -2e-4 -1 0 0 0 0 1 50 413 770 0 404 420 406 0 +.00
0615384615384616 .003134615384615385 -2e-4 0 -1 0 0 0 -1 50 406 769 0 397 413 39
9 0 +.000615384615384616 .004166666666666665 -2e-4 -1 0 0 0 0 1 50 399 768 0 391
 406 392 0 +.0003012820512820515 .004166666666666665 -2e-4 0 -1 0 0 0 -1 50 392
 767 0 172 399 385 0 +.0003012820512820515 .003134615384615385 -2e-4 1 0 0 0 0 -
1 50 385 766 0 167 392 372 0 +-.00073076923076923 .003134615384615385 -2e-4 0 -1
 0 0 0 -1 51 372 199 0 315 385 379 0 +.0105 -.00205 0 0 0 1 4e-4 1 0 0 50 379 19
8 0 320 372 322 0 +.0105 -.00205 .006 0 0 1 1 0 0 51 322 167 0 308 379 314 0 +0
 -.00205 0 0 0 1 4e-4 1 0 0 50 314 166 0 306 322 307 0 +0 -.00205 .006 0 0 1 1 0
 0 83 3 463 .792156862745098 .819607843137255 .933333333333333 15 460 757 0 468
 453 0 17 468 0 460 469 34 86 470 170 0 471 -17 469 0 460 121 468 122 88 472 0 1
59 -17 34 0 460 468 121 11 30 169 0 470 +17 470 0 473 32 471 11 468 170 0 0 +16
 170 646 0 ?470 160 474 475 0 0 1 17 471 0 473 470 476 86 477 474 0 0 +15 473 55
0 0 470 16 0 17 476 0 473 471 478 90 479 480 0 0 +17 477 0 454 481 88 90 471 474
 0 476 -16 474 642 0 ?471 170 480 482 0 0 1 16 480 638 0 ?476 474 483 484 0 0 1
 30 482 793 0 474 484 475 0 +.0003012820512820515 .00282051282051282 0 -1 0 0 30
 484 794 0 480 485 482 0 +.0003012820512820515 .00178846153846154 0 0 1 0 30 475
 792 0 170 482 486 0 +-.00073076923076923 .00282051282051282 0 0 1 0 30 486 791
 0 169 475 487 0 +-.00073076923076923 .003134615384615385 -2e-4 0 0 1 16 169 605
 0 ?34 472 488 486 0 0 1 30 487 790 0 472 486 489 0 +-.00073076923076923 .002820
51282051282 -2e-4 0 0 1 16 472 649 0 ?88 490 169 487 0 0 1 30 489 789 0 490 487
 491 0 +.0003012820512820515 .00282051282051282 -2e-4 0 0 1 16 490 645 0 ?92 492
 472 489 0 0 1 30 491 788 0 492 489 493 0 +.0003012820512820515 .001788461538461
54 -2e-4 0 0 1 16 492 641 0 ?95 494 490 491 0 0 1 30 493 787 0 494 491 495 0 +.0
00615384615384616 .00178846153846154 -2e-4 0 0 1 16 494 637 0 ?98 496 492 493 0
 0 1 30 495 786 0 496 493 497 0 +.000615384615384616 .00282051282051282 -2e-4 0
 0 1 16 496 633 0 ?101 498 494 495 0 0 1 30 497 785 0 498 495 499 0 +.0016474358
974359 .00282051282051282 -2e-4 0 0 1 16 498 629 0 ?104 500 496 497 0 0 1 30 499
 784 0 500 497 501 0 +.0016474358974359 .003134615384615385 -2e-4 0 0 1 16 500 6
25 0 ?107 502 498 499 0 0 1 30 501 783 0 502 499 183 0 +.000615384615384616 .003
134615384615385 -2e-4 0 0 1 16 502 621 0 ?110 180 500 501 0 0 1 30 183 782 0 180
 501 181 0 +.000615384615384616 .004166666666666665 -2e-4 0 0 1 16 180 617 0 ?11
3 176 502 183 0 0 1 17 113 0 398 503 148 111 504 180 0 505 +15 398 721 0 503 391
 0 17 503 0 398 165 113 114 506 507 0 173 -17 148 0 398 113 165 146 155 162 0 50
4 +17 504 0 405 145 505 146 113 180 0 161 -17 505 0 405 504 110 111 508 509 0 50
6 -15 405 725 0 505 397 0 17 110 0 405 505 145 108 510 502 0 511 +17 508 0 473 5
12 506 108 505 509 0 0 +16 509 614 0 ?508 513 507 514 0 0 1 17 506 0 473 508 173
 111 503 507 0 0 +17 173 0 473 506 32 114 119 174 0 0 +16 507 610 0 ?506 509 174
 515 0 0 1 16 174 606 0 ?173 507 33 516 0 0 1 30 515 801 0 507 516 514 0 +.00030
12820512820515 .004166666666666665 0 1 0 0 30 516 802 0 174 517 515 0 +.00030128
20512820515 .003134615384615385 0 0 1 0 30 514 800 0 509 515 518 0 +.00061538461
5384616 .004166666666666665 0 0 -1 0 30 518 799 0 513 514 519 0 +.00061538461538
4616 .003134615384615385 0 1 0 0 16 513 618 0 ?512 520 509 518 0 0 1 30 519 798
 0 520 518 521 0 +.0016474358974359 .003134615384615385 0 0 -1 0 16 520 622 0 ?5
22 523 513 519 0 0 1 30 521 797 0 523 519 524 0 +.0016474358974359 .002820512820
51282 0 -1 0 0 16 523 626 0 ?525 526 520 521 0 0 1 30 524 796 0 526 521 485 0 +.
000615384615384616 .00282051282051282 0 0 -1 0 16 526 630 0 ?527 483 523 524 0 0
 1 30 485 795 0 483 524 484 0 +.000615384615384616 .00178846153846154 0 -1 0 0 1
6 483 634 0 ?478 480 526 485 0 0 1 17 478 0 473 476 527 93 528 483 0 0 +17 527 0
 473 478 525 96 529 526 0 0 +17 528 0 440 530 95 96 478 483 0 527 -15 440 745 0
 528 432 0 17 530 0 440 130 528 131 98 494 0 531 -17 95 0 440 528 130 93 532 492
 0 479 +17 130 0 440 95 530 128 531 533 0 532 +17 532 0 447 127 479 128 95 492 0
 534 -17 479 0 447 532 92 93 476 480 0 478 -15 447 749 0 479 439 0 17 92 0 447 4
79 127 90 481 490 0 477 +17 127 0 447 92 532 125 534 535 0 481 +17 481 0 454 124
 477 125 92 490 0 536 -15 454 753 0 477 446 0 17 124 0 454 88 481 122 536 537 0
 469 +17 536 0 153 534 159 125 124 537 0 0 -17 534 0 153 531 536 128 127 535 0 0
 -17 159 0 153 536 154 122 121 488 0 0 -16 537 680 0 ?124 488 535 538 0 0 1 16 4
88 683 0 ?121 169 537 539 0 0 1 16 535 677 0 ?127 537 533 540 0 0 1 30 538 805 0
 537 540 539 0 +.0003012820512820515 .00282051282051282 -2e-4 -1 0 0 30 540 806
 0 535 541 538 0 +.0003012820512820515 .00178846153846154 -2e-4 0 1 0 30 539 804
 0 488 538 517 0 +-.00073076923076923 .00282051282051282 -2e-4 0 1 0 30 517 803
 0 33 539 516 0 +-.00073076923076923 .003134615384615385 0 1 0 0 16 33 602 0 ?32
 174 0 517 0 0 1 17 32 0 473 173 470 117 27 33 0 0 +30 541 807 0 533 542 540 0 +
.000615384615384616 .00178846153846154 -2e-4 -1 0 0 16 533 674 0 ?130 535 543 54
1 0 0 1 30 542 808 0 543 544 541 0 +.000615384615384616 .00282051282051282 -2e-4
 0 -1 0 16 543 671 0 ?133 533 545 542 0 0 1 30 544 809 0 545 546 542 0 +.0016474
358974359 .00282051282051282 -2e-4 -1 0 0 16 545 668 0 ?136 543 547 544 0 0 1 30
 546 810 0 547 548 544 0 +.0016474358974359 .003134615384615385 -2e-4 0 -1 0 16
 547 665 0 ?139 545 549 546 0 0 1 30 548 811 0 549 550 546 0 +.00061538461538461
6 .003134615384615385 -2e-4 1 0 0 16 549 662 0 ?142 547 551 548 0 0 1 30 550 812
 0 551 552 548 0 +.000615384615384616 .004166666666666665 -2e-4 0 -1 0 16 551 65
9 0 ?145 549 162 550 0 0 1 30 552 813 0 162 166 550 0 +.0003012820512820515 .004
166666666666665 -2e-4 1 0 0 16 162 656 0 ?148 551 156 552 0 0 1 30 166 814 0 156
 171 552 0 +.0003012820512820515 .003134615384615385 -2e-4 0 1 0 30 171 815 0 16
0 0 166 0 +-.00073076923076923 .003134615384615385 -2e-4 1 0 0 17 145 0 405 110
 504 143 161 551 0 510 +17 161 0 153 155 553 146 145 551 0 0 -17 510 0 412 142 5
11 143 110 502 0 553 -15 412 729 0 511 404 0 17 142 0 412 107 510 140 553 549 0
 554 +17 511 0 412 510 107 108 512 513 0 508 -17 553 0 153 161 555 143 142 549 0
 0 -17 555 0 153 553 556 140 139 547 0 0 -17 556 0 153 555 557 137 136 545 0 0 -
17 139 0 419 104 554 137 555 547 0 558 +15 419 733 0 559 411 0 17 104 0 419 559
 139 102 558 498 0 560 +17 554 0 419 139 559 140 107 500 0 555 -17 558 0 426 136
 560 137 104 498 0 556 -15 426 737 0 560 418 0 17 136 0 426 101 558 134 556 545
 0 561 +17 560 0 426 558 101 102 525 523 0 522 -17 101 0 426 560 136 99 561 496
 0 529 +17 525 0 473 527 522 99 560 523 0 0 +17 522 0 473 525 512 102 559 520 0
 0 +17 512 0 473 522 508 105 511 513 0 0 +17 559 0 419 554 104 105 522 520 0 512
 -17 561 0 433 133 529 134 101 496 0 557 -17 529 0 433 561 98 99 527 526 0 525 -
15 433 741 0 529 425 0 17 98 0 433 529 133 96 530 494 0 528 +17 133 0 433 98 561
 131 557 543 0 530 +17 557 0 153 556 531 134 133 543 0 0 -17 531 0 153 557 534 1
31 130 533 0 0 -17 107 0 412 511 142 105 554 500 0 559 +17 121 0 460 34 469 85 1
59 488 0 30 +17 88 0 454 477 124 86 469 472 0 468 +17 165 0 398 148 503 149 116
 176 0 155 -17 116 0 163 119 151 114 165 176 0 503 +83 3 457 .792156862745098 .8
19607843137255 .933333333333333 83 3 450 .792156862745098 .819607843137255 .9333
33333333333 83 3 443 .792156862745098 .819607843137255 .933333333333333 83 3 436
 .792156862745098 .819607843137255 .933333333333333 83 3 429 .792156862745098 .8
19607843137255 .933333333333333 83 3 422 .792156862745098 .819607843137255 .9333
33333333333 83 3 415 .792156862745098 .819607843137255 .933333333333333 83 3 408
 .792156862745098 .819607843137255 .933333333333333 83 3 401 .792156862745098 .8
19607843137255 .933333333333333 83 3 394 .792156862745098 .819607843137255 .9333
33333333333 81 1 386 941 365 350 0 352 562 382 563 83 3 388 .792156862745098 .81
9607843137255 .933333333333333 81 1 352 1037 309 350 386 0 349 355 564 81 1 562
 940 365 353 0 355 357 386 565 83 3 563 .250980392156863 .250980392156863 .25098
0392156863 81 1 355 1038 309 353 562 0 352 356 566 81 1 357 939 365 266 0 356 36
0 562 567 83 3 565 .250980392156863 .250980392156863 .250980392156863 83 3 567 .
250980392156863 .250980392156863 .250980392156863 82 1 566 402981054 81 1 349 10
36 309 298 568 0 347 352 569 82 1 564 401408190 81 1 568 934 365 298 0 349 570 5
71 572 81 1 347 1035 309 281 571 0 345 349 573 82 1 569 400228542 81 1 571 935 3
65 281 0 347 568 574 575 81 1 345 1034 309 302 574 0 343 347 576 82 1 573 399114
430 81 1 574 936 365 302 0 345 571 366 577 81 1 343 1033 309 286 366 0 340 345 5
78 82 1 576 397934782 81 1 366 937 365 286 0 343 574 360 579 81 1 340 1032 309 3
37 570 0 336 343 580 82 1 578 396361918 81 1 570 933 365 337 0 340 374 568 581 8
1 1 336 1031 309 334 374 0 332 340 582 82 1 580 387645629 81 1 374 932 365 334 0
 336 368 570 583 81 1 332 1030 309 290 584 0 331 336 585 82 1 582 386400445 81 1
 584 925 365 290 0 332 586 587 588 81 1 331 1029 309 294 586 0 325 332 589 82 1
 585 290259134 81 1 586 924 365 294 0 331 590 584 591 81 1 325 1028 309 277 590
 0 323 331 592 82 1 589 290128062 81 1 590 923 365 277 0 325 324 586 593 82 1 59
2 290521278 81 1 324 922 365 16 0 323 0 590 594 83 3 593 .250980392156863 .25098
0392156863 .250980392156863 83 3 594 0 .752941176470588 0 83 3 591 .250980392156
863 .250980392156863 .250980392156863 81 1 587 926 365 272 0 316 584 310 595 83
 3 588 .250980392156863 .250980392156863 .250980392156863 81 1 316 1025 309 272
 587 0 311 319 596 81 1 310 927 365 304 0 305 587 597 598 83 3 595 .250980392156
863 .250980392156863 .250980392156863 81 1 597 928 365 306 0 311 310 380 599 83
 3 598 .250980392156863 .250980392156863 .250980392156863 81 1 311 1024 309 306
 597 0 305 316 600 81 1 380 929 365 308 0 319 597 373 601 83 3 599 .768627450980
392 .768627450980392 .768627450980392 81 1 319 1026 309 308 380 0 316 323 602 83
 3 601 .768627450980392 .768627450980392 .768627450980392 82 1 602 326435005 82
 1 600 329253052 82 1 596 290390206 83 3 583 .768627450980392 .768627450980392 .
768627450980392 83 3 581 .768627450980392 .768627450980392 .768627450980392 83 3
 579 .250980392156863 .250980392156863 .250980392156863 83 3 577 .25098039215686
3 .250980392156863 .250980392156863 83 3 575 .250980392156863 .250980392156863 .
250980392156863 83 3 572 .250980392156863 .250980392156863 .250980392156863 83 3
 381 .768627450980392 .768627450980392 .768627450980392 15 378 190 0 186 320 0 1
7 186 0 378 186 186 0 603 184 0 0 +17 603 0 604 603 603 0 186 184 0 0 -15 604 19
3 0 603 315 0 83 3 375 .768627450980392 .768627450980392 .768627450980392 15 371
 221 0 205 315 604 17 205 0 371 205 205 0 605 195 0 0 +17 605 0 606 605 605 0 20
5 195 0 0 -15 606 253 0 605 334 0 83 3 367 .250980392156863 .250980392156863 .25
0980392156863 79 14 364 SWEntUnchanged82 1 359 404160702 15 258 468 0 257 353 0
 15 354 470 0 57 350 0 17 57 0 354 295 607 55 40 178 0 264 +17 295 0 354 48 57 4
9 235 233 0 608 -17 607 0 354 57 48 28 24 10 0 0 -17 40 0 263 39 264 28 57 178 0
 607 -17 48 0 354 607 295 46 608 175 0 259 +17 24 0 37 45 35 46 607 10 0 0 +17 4
5 0 37 38 24 41 259 242 0 268 +17 38 0 37 35 45 36 268 244 0 265 +17 259 0 258 6
08 257 46 45 242 0 24 -17 608 0 258 260 259 49 48 175 0 0 -17 260 0 258 257 608
 79 51 238 0 0 -15 341 265 0 609 337 610 17 609 0 341 609 609 0 208 206 0 0 -15
 610 266 0 611 337 0 17 611 0 610 611 611 0 214 212 0 0 -17 214 0 321 214 214 0
 611 212 0 0 +15 321 239 0 214 308 612 15 612 161 0 613 308 0 17 613 0 612 613 6
13 0 190 187 0 0 -17 190 0 313 190 190 0 613 187 0 0 +15 313 158 0 190 306 0 17
 208 0 614 208 208 0 609 206 0 0 +15 614 227 0 208 16 473 15 338 252 0 615 334 6
06 17 615 0 338 615 615 0 211 209 0 0 -17 211 0 328 211 211 0 615 209 0 0 +15 32
8 233 0 211 16 614 82 1 326 499712192 82 1 312 283574462 17 194 0 292 235 54 49
 276 192 0 295 +19 17 100 0 1 0 9 5 S0 74 4 CI16 index_map_offset0 0 1 dCCZ20 15
 8 0 0 458 616 617 618 619 13 462 2 0 0 0 0 0 0 0 0 0 0 0 0 81 2 616 203 620 1 0
 617 0 0 0 621 81 2 617 210 622 1 616 618 0 0 0 623 81 1 618 883 624 1 617 619 0
 0 625 81 2 619 886 626 1 618 13 0 0 0 0 81 2 13 921 627 1 619 2 0 0 628 0 80 2
 627 629 630 8004 0 0 0 0 3 5 0 0 0 FFTFFFFFFFFFFF2 3 83 1 628 1 79 16 630 SDL/T
YSA_DENSITY80 2 626 631 632 9000 0 0 0 0 3 5 0 0 0 FFTFFFFFFFFFFF9 1 79 16 632 B
ODY_RECIPE_200180 1 624 633 634 9000 1 1 1 1 1 1 1 1 0 FFTFFFFFFFFFFF1 82 1 625
 266469 79 10 634 BODY_MATCH80 2 622 635 636 9000 0 0 0 0 3 5 0 0 0 FFTFFFFFFFFF
FF9 1 82 1 623 77 79 30 636 LAST_BODY_MODIFYING_FEATURE_ID80 2 620 637 638 9000
 0 0 0 0 3 5 0 0 0 FFTFFFFFFFFFFF9 1 82 1 621 171 79 19 638 ENT_TIME_STAMP_20018
0 2 12 639 640 9000 0 0 0 0 3 5 0 0 0 FFTFFFFFFFFFFF9 1 82 1 14 103 79 12 640 AT
OM_ID_20011 0 
